<svg width="500" height="500" viewBox="0 0 500 500" fill="none" xmlns="http://www.w3.org/2000/svg">
<path d="M76.2218 400.929C118.318 400.929 152.444 366.803 152.444 324.707C152.444 282.611 118.318 248.485 76.2218 248.485C34.1257 248.485 0 282.611 0 324.707C0 366.803 34.1257 400.929 76.2218 400.929Z" fill="#0066F7" style="fill:#0066F7;fill:color(display-p3 0.0000 0.4000 0.9686);fill-opacity:1;"/>
<path d="M311.886 105.783L311.887 105.783C337.479 93.2032 368.423 103.752 381.003 129.345L477.223 325.101C489.802 350.693 479.253 381.638 453.661 394.217L453.661 394.217C428.068 406.797 397.124 396.248 384.545 370.655L288.324 174.899C275.745 149.306 286.294 118.362 311.886 105.783Z" fill="white" style="fill:white;fill-opacity:1;"/>
<path d="M246.633 294.17C233.689 298.889 219.369 292.222 214.65 279.277C209.93 266.333 216.598 252.014 229.542 247.294L357.713 200.563C370.657 195.843 384.977 202.51 389.696 215.455C394.416 228.399 387.748 242.718 374.804 247.438L246.633 294.17Z" fill="white" style="fill:white;fill-opacity:1;"/>
<path d="M154.525 105.783L154.526 105.783C180.118 93.2032 211.062 103.752 223.642 129.345L319.862 325.101C332.441 350.693 321.892 381.638 296.3 394.217L296.3 394.217C270.707 406.797 239.763 396.248 227.183 370.655L130.963 174.899C118.384 149.306 128.933 118.362 154.525 105.783Z" fill="white" style="fill:white;fill-opacity:1;"/>
</svg>
